<svg width="1600" height="900" viewBox="0 0 1600 900" fill="none" xmlns="http://www.w3.org/2000/svg">
  <rect width="1600" height="900" rx="32" fill="#070A12"/>
  <radialGradient id="blueGlow" cx="0" cy="0" r="1" gradientUnits="userSpaceOnUse" gradientTransform="translate(806 421) rotate(90) scale(520 760)">
    <stop stop-color="#178BFF" stop-opacity="0.55"/>
    <stop offset="1" stop-color="#178BFF" stop-opacity="0"/>
  </radialGradient>
  <rect width="1600" height="900" rx="32" fill="url(#blueGlow)"/>

  <g filter="url(#shadow)">
    <rect x="144" y="106" width="1312" height="688" rx="28" fill="#10141D" stroke="#293142"/>
    <rect x="144" y="106" width="1312" height="64" rx="28" fill="#171C27"/>
    <circle cx="184" cy="138" r="9" fill="#FF605C"/>
    <circle cx="216" cy="138" r="9" fill="#FFBD44"/>
    <circle cx="248" cy="138" r="9" fill="#00CA4E"/>
    <text x="800" y="145" text-anchor="middle" fill="#D9DEE8" font-family="Inter, SF Pro Display, Arial" font-size="20" font-weight="700">LocaleShot</text>
  </g>

  <g>
    <rect x="190" y="220" width="280" height="500" rx="22" fill="#121823" stroke="#2A3447"/>
    <rect x="220" y="255" width="220" height="56" rx="14" fill="#177BFF"/>
    <text x="330" y="291" text-anchor="middle" fill="white" font-family="Inter, SF Pro Display, Arial" font-size="20" font-weight="700">Record Flow</text>
    <rect x="220" y="340" width="220" height="48" rx="12" fill="#1C2432"/>
    <rect x="220" y="410" width="220" height="48" rx="12" fill="#1C2432"/>
    <rect x="220" y="480" width="220" height="48" rx="12" fill="#1C2432"/>
    <rect x="220" y="575" width="220" height="56" rx="14" fill="#177BFF"/>
    <text x="330" y="611" text-anchor="middle" fill="white" font-family="Inter, SF Pro Display, Arial" font-size="20" font-weight="700">Generate</text>
  </g>

  <g filter="url(#phoneShadow)">
    <rect x="608" y="200" width="384" height="560" rx="54" fill="#F7F9FD"/>
    <rect x="740" y="230" width="120" height="28" rx="14" fill="#111827"/>
    <rect x="668" y="290" width="96" height="96" rx="24" fill="#177BFF"/>
    <rect x="792" y="302" width="136" height="22" rx="11" fill="#D4D9E5"/>
    <rect x="792" y="344" width="150" height="22" rx="11" fill="#D4D9E5"/>
    <rect x="668" y="430" width="264" height="148" rx="22" fill="#178BFF"/>
    <path d="M668 548L760 466L848 542L898 500L932 532V578H668V548Z" fill="#075CE7"/>
    <circle cx="888" cy="478" r="28" fill="#D7EEFF"/>
    <rect x="668" y="620" width="74" height="74" rx="18" fill="#177BFF"/>
    <rect x="762" y="620" width="74" height="74" rx="18" fill="#177BFF"/>
    <rect x="856" y="620" width="74" height="74" rx="18" fill="#177BFF"/>
  </g>

  <g opacity="0.92">
    <rect x="1008" y="250" width="290" height="420" rx="34" fill="#F7FFF9" transform="rotate(8 1008 250)"/>
    <text x="1090" y="318" fill="#1DBA5A" font-family="Inter, SF Pro Display, Arial" font-size="52" font-weight="800" transform="rotate(8 1090 318)">DE</text>
    <rect x="1060" y="394" width="150" height="126" rx="18" fill="#24C46B" transform="rotate(8 1060 394)"/>
  </g>

  <g opacity="0.92">
    <rect x="304" y="270" width="290" height="420" rx="34" fill="#F7FBFF" transform="rotate(-8 304 270)"/>
    <text x="382" y="336" fill="#177BFF" font-family="Inter, SF Pro Display, Arial" font-size="52" font-weight="800" transform="rotate(-8 382 336)">EN</text>
    <rect x="350" y="410" width="150" height="126" rx="18" fill="#20A6FF" transform="rotate(-8 350 410)"/>
  </g>

  <g>
    <text x="800" y="838" text-anchor="middle" fill="#F7FAFF" font-family="Inter, SF Pro Display, Arial" font-size="56" font-weight="800">Localized screenshots from one Simulator flow</text>
    <text x="800" y="876" text-anchor="middle" fill="#A8B3C7" font-family="Inter, SF Pro Text, Arial" font-size="24" font-weight="500">Record once. Replay across App Store languages. Keep everything local.</text>
  </g>

  <defs>
    <filter id="shadow" x="112" y="78" width="1376" height="752" filterUnits="userSpaceOnUse" color-interpolation-filters="sRGB">
      <feDropShadow dx="0" dy="18" stdDeviation="22" flood-color="#000000" flood-opacity="0.35"/>
    </filter>
    <filter id="phoneShadow" x="564" y="168" width="472" height="648" filterUnits="userSpaceOnUse" color-interpolation-filters="sRGB">
      <feDropShadow dx="0" dy="26" stdDeviation="24" flood-color="#000000" flood-opacity="0.35"/>
    </filter>
  </defs>
</svg>
